<?xml version="1.0" encoding="utf-8"?>
<!-- Generator: Adobe Illustrator 25.2.3, SVG Export Plug-In . SVG Version: 6.00 Build 0)  -->
<svg version="1.1" id="Layer_1" xmlns="http://www.w3.org/2000/svg" xmlns:xlink="http://www.w3.org/1999/xlink" x="0px" y="0px"
	 viewBox="0 0 612 792" style="enable-background:new 0 0 612 792;" xml:space="preserve">
<style type="text/css">
	.st0{fill:#13284C;}
	.st1{fill:#FBAB1A;}
</style>
<g>
	<g>
		<circle class="st0" cx="201.47" cy="371.2" r="75.81"/>
	</g>
</g>
<path class="st1" d="M201.47,354.92c-25.49,0-52.93-5.02-52.93-16.04c0-11.02,27.44-16.04,52.93-16.04
	c25.49,0,52.93,5.02,52.93,16.04C254.4,349.9,226.96,354.92,201.47,354.92z M201.47,329.22c-13.02,0-25.23,1.3-34.37,3.66
	c-10.01,2.59-12.18,5.43-12.18,6c0,0.57,2.17,3.41,12.18,6c9.14,2.36,21.35,3.66,34.37,3.66c13.02,0,25.23-1.3,34.37-3.66
	c10.01-2.59,12.18-5.43,12.18-6c0-0.57-2.17-3.41-12.18-6C226.7,330.52,214.49,329.22,201.47,329.22z"/>
<path class="st1" d="M201.47,419.57c-25.49,0-52.93-5.02-52.93-16.04c0-11.02,27.44-16.04,52.93-16.04
	c25.49,0,52.93,5.02,52.93,16.04C254.4,414.55,226.96,419.57,201.47,419.57z M201.47,393.87c-13.02,0-25.23,1.3-34.37,3.66
	c-10.01,2.59-12.18,5.43-12.18,6s2.17,3.41,12.18,6c9.14,2.36,21.35,3.66,34.37,3.66c13.02,0,25.23-1.3,34.37-3.66
	c10.01-2.59,12.18-5.43,12.18-6s-2.17-3.41-12.18-6C226.7,395.17,214.49,393.87,201.47,393.87z"/>
<path class="st1" d="M155.25,408.8c-0.29,0-0.49,0-0.59,0l0.09-6.91c0.51,0,51.82,0.32,77.91-25.46
	c10.02-9.9,15.36-22.53,15.36-37.54h6.38c0,14.55-5.51,31.23-16.9,42.47C210.58,407.93,161.52,408.8,155.25,408.8z"/>
</svg>
